# xmcd
#
# Track frame offsets: 
#        150
#        11113
#        23732
#        34494
#        43096
#        51615
#        65259
#        77223
#        87353
#        97533
#        107689
#        118226
#
# Disc length: 1728 seconds
#
# Revision: 2
# Processed by: cddbd v1.5.2PL0 Copyright (c) Steve Scherf et al.
# Submitted via: ExactAudioCopy v0.95b4
#
DISCID=9c06be0c
DTITLE=Various Artist - Just A Couple of Outlaws
DYEAR=2006
DGENRE=Outlaw Country
TTITLE0=Waylon Jennings - Big Mamou
TTITLE1=Willie Nelson - I Just don't Understand
TTITLE2=Waylon Jennings - Dream Baby
TTITLE3=Willie Nelson - Why Are You Picking on Me
TTITLE4=Waylon Jennings - Love's Gonna Live Here
TTITLE5=Willie Nelson - Home is Where You are Happy
TTITLE6=Waylon Jennings - Don't Think Twice, It's Alright
TTITLE7=Willie Nelson - Pride Wins Again
TTITLE8=Waylon Jennings - White Lightnin'
TTITLE9=Willie Nelson - Broken Promise
TTITLE10=Waylon Jennings - Sally Was a Good Old Girl
TTITLE11=Willie Nelson - I'm Gonna Lose a Lot of Teardrops
EXTD=
EXTT0=
EXTT1=
EXTT2=
EXTT3=
EXTT4=
EXTT5=
EXTT6=
EXTT7=
EXTT8=
EXTT9=
EXTT10=
EXTT11=
PLAYORDER=
